# xmcd
#
# Track frame offsets: 
#        150
#        11260
#        24978
#        38773
#        53270
#        68323
#        81448
#        93825
#        107913
#        121128
#        133125
#        146365
#        158475
#        173308
#        185850
#        196273
#        211630
#
# Disc length: 3011 seconds
#
# Revision: 7
# Processed by: cddbd v1.5.2PL0 Copyright (c) Steve Scherf et al.
# Submitted via: ExactAudioCopy v1.1
#
DISCID=c50bc111
DTITLE=Various Artist - Ich brech' die Herzen der stolzesten Frau'n (
DTITLE=CD1)
DYEAR=1993
DGENRE=Schlager
TTITLE0=Heinz Rühmann - Ich brech' die Herzen der stolzesten Frau'n
TTITLE1=Zarah Leander - Kann den Liebe Sünde sein
TTITLE2=Marlene Dietrich - Ich bin von Kopf bis Fuß auf Liebe eingeste
TTITLE2=llt
TTITLE3=Comedian Harmonists - Wochenend und Sonnenschein
TTITLE4=Hans Albers - La Paloma
TTITLE5=Lilian Harvey and Willy Fritsch - Liebling, mein Herz läßt dich 
TTITLE5=grüßen
TTITLE6=Richard Tauber - Ich küsse Ihre Hand, Madame
TTITLE7=Ilse Werner - Sing ein Lied, wenn du mal traurig bist
TTITLE8=Georges Boulanger and sein Ensemble - Warum müssen die Jahre ver
TTITLE8=geh'n (Avant De Mourir)
TTITLE9=Rudi Schurike - Für eine Nacht voller Seligkeit
TTITLE10=Zarah Leander - Der Wind hat mir ein Lied erzählt
TTITLE11=Willi Forst - Du hast Glück bei den Frau'n Bel Ami
TTITLE12=Magda Hain - Möwe, du fliegst in die Heimat
TTITLE13=Eugen Wolff and sein Tanzorchester - Ich werde jede Nacht von I
TTITLE13=hnen träumen
TTITLE14=Comedian Harmonists - Ein Freund, ein guter Freund
TTITLE15=Hans Albers - Good Bye, Jonny!
TTITLE16=Lale Andersen - Lili Marleen
EXTD=YEAR: 1993
EXTT0=
EXTT1=
EXTT2=
EXTT3=
EXTT4=
EXTT5=
EXTT6=
EXTT7=
EXTT8=
EXTT9=
EXTT10=
EXTT11=
EXTT12=
EXTT13=
EXTT14=
EXTT15=
EXTT16=
PLAYORDER=
